<mxfile host="Electron" modified="2023-09-07T09:47:51.982Z" agent="Mozilla/5.0 (Windows NT 10.0; Win64; x64) AppleWebKit/537.36 (KHTML, like Gecko) draw.io/21.6.8 Chrome/114.0.5735.289 Electron/25.5.0 Safari/537.36" etag="PxYmqAO4pwHq68kh_48A" version="21.6.8" type="device">
  <diagram name="Page-1" id="Kt7_fLkRGU6ps_dVwyQc">
    <mxGraphModel dx="1185" dy="683" grid="1" gridSize="10" guides="1" tooltips="1" connect="1" arrows="1" fold="1" page="1" pageScale="1" pageWidth="1600" pageHeight="900" math="0" shadow="0">
      <root>
        <mxCell id="0" />
        <mxCell id="1" parent="0" />
        <mxCell id="ck9YV-qvY_fgCaS0ZzCG-5" style="edgeStyle=orthogonalEdgeStyle;rounded=0;orthogonalLoop=1;jettySize=auto;html=1;endArrow=none;endFill=0;dashed=1;" edge="1" parent="1">
          <mxGeometry relative="1" as="geometry">
            <mxPoint x="215" y="642" as="targetPoint" />
            <mxPoint x="215" y="414" as="sourcePoint" />
          </mxGeometry>
        </mxCell>
        <mxCell id="ck9YV-qvY_fgCaS0ZzCG-1" value="user" style="shape=umlActor;verticalLabelPosition=bottom;verticalAlign=top;html=1;outlineConnect=0;" vertex="1" parent="1">
          <mxGeometry x="200" y="40" width="30" height="60" as="geometry" />
        </mxCell>
        <mxCell id="ck9YV-qvY_fgCaS0ZzCG-6" style="edgeStyle=orthogonalEdgeStyle;rounded=0;orthogonalLoop=1;jettySize=auto;html=1;endArrow=none;endFill=0;dashed=1;" edge="1" parent="1" source="ck9YV-qvY_fgCaS0ZzCG-2">
          <mxGeometry relative="1" as="geometry">
            <mxPoint x="420" y="640" as="targetPoint" />
          </mxGeometry>
        </mxCell>
        <mxCell id="ck9YV-qvY_fgCaS0ZzCG-2" value="Profile System" style="rounded=0;whiteSpace=wrap;html=1;" vertex="1" parent="1">
          <mxGeometry x="360" y="40" width="120" height="40" as="geometry" />
        </mxCell>
        <mxCell id="ck9YV-qvY_fgCaS0ZzCG-7" style="edgeStyle=orthogonalEdgeStyle;rounded=0;orthogonalLoop=1;jettySize=auto;html=1;endArrow=none;endFill=0;dashed=1;" edge="1" parent="1" source="ck9YV-qvY_fgCaS0ZzCG-3">
          <mxGeometry relative="1" as="geometry">
            <mxPoint x="660" y="640" as="targetPoint" />
          </mxGeometry>
        </mxCell>
        <mxCell id="ck9YV-qvY_fgCaS0ZzCG-3" value="Database" style="rounded=0;whiteSpace=wrap;html=1;" vertex="1" parent="1">
          <mxGeometry x="600" y="40" width="120" height="40" as="geometry" />
        </mxCell>
        <mxCell id="ck9YV-qvY_fgCaS0ZzCG-8" value="" style="endArrow=classic;html=1;rounded=0;edgeStyle=orthogonalEdgeStyle;" edge="1" parent="1">
          <mxGeometry width="50" height="50" relative="1" as="geometry">
            <mxPoint x="215" y="150" as="sourcePoint" />
            <mxPoint x="420" y="150" as="targetPoint" />
          </mxGeometry>
        </mxCell>
        <mxCell id="ck9YV-qvY_fgCaS0ZzCG-9" value="" style="endArrow=classic;html=1;rounded=0;edgeStyle=orthogonalEdgeStyle;" edge="1" parent="1">
          <mxGeometry width="50" height="50" relative="1" as="geometry">
            <mxPoint x="420" y="180" as="sourcePoint" />
            <mxPoint x="660" y="180" as="targetPoint" />
          </mxGeometry>
        </mxCell>
        <mxCell id="ck9YV-qvY_fgCaS0ZzCG-10" value="Access Profile" style="text;html=1;strokeColor=none;fillColor=none;align=center;verticalAlign=middle;whiteSpace=wrap;rounded=0;" vertex="1" parent="1">
          <mxGeometry x="270" y="130" width="80" height="30" as="geometry" />
        </mxCell>
        <mxCell id="ck9YV-qvY_fgCaS0ZzCG-11" value="Fetch Profile Details" style="text;html=1;strokeColor=none;fillColor=none;align=center;verticalAlign=middle;whiteSpace=wrap;rounded=0;" vertex="1" parent="1">
          <mxGeometry x="470" y="160" width="110" height="30" as="geometry" />
        </mxCell>
        <mxCell id="ck9YV-qvY_fgCaS0ZzCG-12" value="Return Profile Data" style="text;html=1;strokeColor=none;fillColor=none;align=center;verticalAlign=middle;whiteSpace=wrap;rounded=0;" vertex="1" parent="1">
          <mxGeometry x="470" y="196" width="110" height="30" as="geometry" />
        </mxCell>
        <mxCell id="ck9YV-qvY_fgCaS0ZzCG-13" value="" style="endArrow=none;html=1;rounded=0;edgeStyle=orthogonalEdgeStyle;dashed=1;startArrow=classic;startFill=1;endFill=0;" edge="1" parent="1">
          <mxGeometry width="50" height="50" relative="1" as="geometry">
            <mxPoint x="420" y="216" as="sourcePoint" />
            <mxPoint x="660" y="216" as="targetPoint" />
          </mxGeometry>
        </mxCell>
        <mxCell id="ck9YV-qvY_fgCaS0ZzCG-14" value="" style="endArrow=none;html=1;rounded=0;edgeStyle=orthogonalEdgeStyle;startArrow=classic;startFill=1;endFill=0;" edge="1" parent="1">
          <mxGeometry width="50" height="50" relative="1" as="geometry">
            <mxPoint x="215.5" y="246" as="sourcePoint" />
            <mxPoint x="420.5" y="246" as="targetPoint" />
          </mxGeometry>
        </mxCell>
        <mxCell id="ck9YV-qvY_fgCaS0ZzCG-15" value="Display Profile" style="text;html=1;strokeColor=none;fillColor=none;align=center;verticalAlign=middle;whiteSpace=wrap;rounded=0;" vertex="1" parent="1">
          <mxGeometry x="270.5" y="226" width="80" height="30" as="geometry" />
        </mxCell>
        <mxCell id="ck9YV-qvY_fgCaS0ZzCG-17" value="" style="edgeStyle=orthogonalEdgeStyle;rounded=0;orthogonalLoop=1;jettySize=auto;html=1;endArrow=none;endFill=0;dashed=1;" edge="1" parent="1" source="ck9YV-qvY_fgCaS0ZzCG-1" target="ck9YV-qvY_fgCaS0ZzCG-16">
          <mxGeometry relative="1" as="geometry">
            <mxPoint x="215" y="910.0000000000002" as="targetPoint" />
            <mxPoint x="215" y="100" as="sourcePoint" />
          </mxGeometry>
        </mxCell>
        <mxCell id="ck9YV-qvY_fgCaS0ZzCG-16" value="" style="rounded=0;whiteSpace=wrap;html=1;" vertex="1" parent="1">
          <mxGeometry x="200" y="332" width="30" height="80" as="geometry" />
        </mxCell>
        <mxCell id="ck9YV-qvY_fgCaS0ZzCG-18" style="edgeStyle=orthogonalEdgeStyle;rounded=0;orthogonalLoop=1;jettySize=auto;html=1;exitX=1;exitY=0.25;exitDx=0;exitDy=0;entryX=1;entryY=0.5;entryDx=0;entryDy=0;" edge="1" parent="1" source="ck9YV-qvY_fgCaS0ZzCG-16" target="ck9YV-qvY_fgCaS0ZzCG-16">
          <mxGeometry relative="1" as="geometry">
            <Array as="points">
              <mxPoint x="260" y="352" />
              <mxPoint x="260" y="372" />
            </Array>
          </mxGeometry>
        </mxCell>
        <mxCell id="ck9YV-qvY_fgCaS0ZzCG-19" value="Editing Profile" style="text;html=1;strokeColor=none;fillColor=none;align=center;verticalAlign=middle;whiteSpace=wrap;rounded=0;" vertex="1" parent="1">
          <mxGeometry x="264" y="347" width="80" height="30" as="geometry" />
        </mxCell>
        <mxCell id="ck9YV-qvY_fgCaS0ZzCG-20" value="" style="endArrow=classic;html=1;rounded=0;edgeStyle=orthogonalEdgeStyle;" edge="1" parent="1">
          <mxGeometry width="50" height="50" relative="1" as="geometry">
            <mxPoint x="215" y="431" as="sourcePoint" />
            <mxPoint x="420" y="431" as="targetPoint" />
          </mxGeometry>
        </mxCell>
        <mxCell id="ck9YV-qvY_fgCaS0ZzCG-21" value="Submit Changes" style="text;html=1;strokeColor=none;fillColor=none;align=center;verticalAlign=middle;whiteSpace=wrap;rounded=0;" vertex="1" parent="1">
          <mxGeometry x="263" y="411" width="100" height="30" as="geometry" />
        </mxCell>
        <mxCell id="ck9YV-qvY_fgCaS0ZzCG-22" value="Update Profile" style="text;html=1;strokeColor=none;fillColor=none;align=center;verticalAlign=middle;whiteSpace=wrap;rounded=0;" vertex="1" parent="1">
          <mxGeometry x="470" y="441" width="110" height="30" as="geometry" />
        </mxCell>
        <mxCell id="ck9YV-qvY_fgCaS0ZzCG-23" value="" style="endArrow=classic;html=1;rounded=0;edgeStyle=orthogonalEdgeStyle;" edge="1" parent="1">
          <mxGeometry width="50" height="50" relative="1" as="geometry">
            <mxPoint x="420" y="461" as="sourcePoint" />
            <mxPoint x="660" y="461" as="targetPoint" />
          </mxGeometry>
        </mxCell>
        <mxCell id="ck9YV-qvY_fgCaS0ZzCG-24" value="Successful Update" style="text;html=1;strokeColor=none;fillColor=none;align=center;verticalAlign=middle;whiteSpace=wrap;rounded=0;" vertex="1" parent="1">
          <mxGeometry x="470" y="485" width="110" height="30" as="geometry" />
        </mxCell>
        <mxCell id="ck9YV-qvY_fgCaS0ZzCG-25" value="" style="endArrow=none;html=1;rounded=0;edgeStyle=orthogonalEdgeStyle;dashed=1;startArrow=classic;startFill=1;endFill=0;" edge="1" parent="1">
          <mxGeometry width="50" height="50" relative="1" as="geometry">
            <mxPoint x="420" y="505" as="sourcePoint" />
            <mxPoint x="660" y="505" as="targetPoint" />
          </mxGeometry>
        </mxCell>
        <mxCell id="ck9YV-qvY_fgCaS0ZzCG-26" value="" style="endArrow=none;html=1;rounded=0;edgeStyle=orthogonalEdgeStyle;startArrow=classic;startFill=1;endFill=0;" edge="1" parent="1">
          <mxGeometry width="50" height="50" relative="1" as="geometry">
            <mxPoint x="214.5" y="551" as="sourcePoint" />
            <mxPoint x="419.5" y="551" as="targetPoint" />
          </mxGeometry>
        </mxCell>
        <mxCell id="ck9YV-qvY_fgCaS0ZzCG-27" value="Confirm Changes" style="text;html=1;strokeColor=none;fillColor=none;align=center;verticalAlign=middle;whiteSpace=wrap;rounded=0;" vertex="1" parent="1">
          <mxGeometry x="266.5" y="531" width="100.5" height="30" as="geometry" />
        </mxCell>
        <mxCell id="ck9YV-qvY_fgCaS0ZzCG-28" value="alt" style="shape=umlFrame;whiteSpace=wrap;html=1;pointerEvents=0;recursiveResize=0;container=1;collapsible=0;width=160;" vertex="1" parent="1">
          <mxGeometry x="190" y="291" width="490" height="279" as="geometry" />
        </mxCell>
        <mxCell id="ck9YV-qvY_fgCaS0ZzCG-29" value="" style="endArrow=none;html=1;rounded=0;edgeStyle=orthogonalEdgeStyle;" edge="1" parent="1">
          <mxGeometry width="50" height="50" relative="1" as="geometry">
            <mxPoint x="210" y="640" as="sourcePoint" />
            <mxPoint x="670" y="640" as="targetPoint" />
          </mxGeometry>
        </mxCell>
      </root>
    </mxGraphModel>
  </diagram>
</mxfile>
